<svg xmlns="http://www.w3.org/2000/svg" width="32" height="32" fill="none"><path fill="#1E1E20" d="M26 4h-3V3a1 1 0 0 0-2 0v1H11V3a1 1 0 0 0-2 0v1H6a2 2 0 0 0-2 2v20a2 2 0 0 0 2 2h20a2 2 0 0 0 2-2V6a2 2 0 0 0-2-2ZM9 6v1a1 1 0 0 0 2 0V6h10v1a1 1 0 0 0 2 0V6h3v4H6V6h3Zm17 20H6V12h20v14Zm-8.5-9.5a1.5 1.5 0 1 1-3 0 1.5 1.5 0 0 1 3 0Zm5.5 0a1.5 1.5 0 1 1-3 0 1.5 1.5 0 0 1 3 0Zm-11 5a1.5 1.5 0 1 1-3 0 1.5 1.5 0 0 1 3 0Zm5.5 0a1.5 1.5 0 1 1-3 0 1.5 1.5 0 0 1 3 0Zm5.5 0a1.5 1.5 0 1 1-3 0 1.5 1.5 0 0 1 3 0Z"/></svg>